HIERARCHY
ROOT Hips
{
	OFFSET 0.00000 0.00000 0.00000
	CHANNELS 6 Xposition Yposition Zposition Zrotation Yrotation Xrotation 
	JOINT LHipJoint
	{
		OFFSET 0 0 0
		CHANNELS 3 Zrotation Yrotation Xrotation
		JOINT LeftUpLeg
		{
			OFFSET 2.05677 -1.58049 1.10403
			CHANNELS 3 Zrotation Yrotation Xrotation
			JOINT LeftLeg
			{
				OFFSET 2.02748 -5.57047 0.00000
				CHANNELS 3 Zrotation Yrotation Xrotation
				JOINT LeftFoot
				{
					OFFSET 2.69552 -7.40589 0.00000
					CHANNELS 3 Zrotation Yrotation Xrotation
					JOINT LeftToeBase
					{
						OFFSET 0.09402 -0.25831 1.95424
						CHANNELS 3 Zrotation Yrotation Xrotation
						End Site
						{
							OFFSET 0.00000 -0.00000 0.99937
						}
					}
				}
			}
		}
	}
	JOINT RHipJoint
	{
		OFFSET 0 0 0
		CHANNELS 3 Zrotation Yrotation Xrotation
		JOINT RightUpLeg
		{
			OFFSET -1.90113 -1.58050 1.10403
			CHANNELS 3 Zrotation Yrotation Xrotation
			JOINT RightLeg
			{
				OFFSET -2.04535 -5.61956 0.00000
				CHANNELS 3 Zrotation Yrotation Xrotation
				JOINT RightFoot
				{
					OFFSET -2.62202 -7.20394 0.00000
					CHANNELS 3 Zrotation Yrotation Xrotation
					JOINT RightToeBase
					{
						OFFSET -0.10393 -0.28555 1.99081
						CHANNELS 3 Zrotation Yrotation Xrotation
						End Site
						{
							OFFSET -0.00000 -0.00000 1.01862
						}
					}
				}
			}
		}
	}
	JOINT LowerBack
	{
		OFFSET 0 0 0
		CHANNELS 3 Zrotation Yrotation Xrotation
		JOINT Spine
		{
			OFFSET -0.08023 1.81443 -0.26993
			CHANNELS 3 Zrotation Yrotation Xrotation
			JOINT Spine1
			{
				OFFSET 0.04312 1.79960 0.09924
				CHANNELS 3 Zrotation Yrotation Xrotation
				JOINT Neck
				{
					OFFSET 0 0 0
					CHANNELS 3 Zrotation Yrotation Xrotation
					JOINT Neck1
					{
						OFFSET -0.04205 1.79103 0.11343
						CHANNELS 3 Zrotation Yrotation Xrotation
						JOINT Head
						{
							OFFSET 0.06228 1.77547 -0.31107
							CHANNELS 3 Zrotation Yrotation Xrotation
							End Site
							{
								OFFSET 0.01771 1.81538 -0.11931
							}
						}
					}
				}
				JOINT LeftShoulder
				{
					OFFSET 0 0 0
					CHANNELS 3 Zrotation Yrotation Xrotation
					JOINT LeftArm
					{
						OFFSET 3.63907 0.79660 -0.40306
						CHANNELS 3 Zrotation Yrotation Xrotation
						JOINT LeftForeArm
						{
							OFFSET 4.83799 -0.00000 0.00000
							CHANNELS 3 Zrotation Yrotation Xrotation
							JOINT LeftHand
							{
								OFFSET 2.68259 -0.00000 0.00000
								CHANNELS 3 Zrotation Yrotation Xrotation
								JOINT LeftFingerBase
								{
									OFFSET 0 0 0
									CHANNELS 3 Zrotation Yrotation Xrotation
									JOINT LeftHandIndex1
									{
										OFFSET 0.72476 -0.00000 0.00000
										CHANNELS 3 Zrotation Yrotation Xrotation
										End Site
										{
											OFFSET 0.58432 -0.00000 0.00000
										}
									}
								}
								JOINT LThumb
								{
									OFFSET 0 0 0
									CHANNELS 3 Zrotation Yrotation Xrotation
									End Site
									{
										OFFSET 0.59325 -0.00000 0.59325
									}
								}
							}
						}
					}
				}
				JOINT RightShoulder
				{
					OFFSET 0 0 0
					CHANNELS 3 Zrotation Yrotation Xrotation
					JOINT RightArm
					{
						OFFSET -3.79008 0.56049 -0.20494
						CHANNELS 3 Zrotation Yrotation Xrotation
						JOINT RightForeArm
						{
							OFFSET -4.61639 -0.00000 -0.00000
							CHANNELS 3 Zrotation Yrotation Xrotation
							JOINT RightHand
							{
								OFFSET -2.86915 -0.00000 0.00000
								CHANNELS 3 Zrotation Yrotation Xrotation
								JOINT RightFingerBase
								{
									OFFSET 0 0 0
									CHANNELS 3 Zrotation Yrotation Xrotation
									JOINT RightHandIndex1
									{
										OFFSET -0.72601 -0.00000 0.00000
										CHANNELS 3 Zrotation Yrotation Xrotation
										End Site
										{
											OFFSET -0.58533 -0.00000 0.00000
										}
									}
								}
								JOINT RThumb
								{
									OFFSET 0 0 0
									CHANNELS 3 Zrotation Yrotation Xrotation
									End Site
									{
										OFFSET -0.59426 -0.00000 0.59426
									}
								}
							}
						}
					}
				}
			}
		}
	}
}
MOTION
Frames: 12
Frame Time: 0.166667
0.00 0.00 0.00 0 0 0 0 0 0 -21 0 0 0 0 0 0 0 0 0 0 0 0 0 0 21 0 0 0 0 0 0 0 0 0 0 0 0 0 0 0 0 0 0 0 0 0 0 -16 0 0 21 0 0 11 0 0 0 -8 0 0 0 0 0 0 0 0 0 0 0 0 0 0 0 0 0 0 0 0 8 0 0 0 0 0 0 0 0 0 0 0 0 0 0 0 0 0
0.00 0.00 0.00 1.3703 1.0152 3.5091 0.0000 0.0000 0.0000 -16.6212 -22.8394 -22.8871 2.5600 9.9461 28.8025 0.0591 2.2157 -5.9641 3.8436 11.9493 35.5528 0.0000 0.0000 0.0000 22.2714 5.5618 15.4032 -1.0541 -6.5282 18.3249 -0.4347 -0.4586 -12.6290 -0.1377 -2.3920 6.5904 -5.1170 1.6040 12.0332 1.0526 1.4102 -4.7425 3.7317 1.1208 -12.1586 -4.6278 -6.4448 -7.3510 3.3675 -8.7308 15.8805 1.1349 -4.2497 6.3855 -0.0000 0.0000 0.0000 -89.9795 12.5428 23.0070 10.6836 -17.8017 -1.6779 -0.0000 -0.0000 1.6724 3.7269 21.7626 1.3835 -7.1250 0.0000 -0.0000 -24.6863 50.0841 -3.2695 -0.0000 0.0000 0.0000 87.5268 -5.6649 21.8329 -11.6479 19.2745 -1.9845 0.0000 0.0000 11.8671 -8.4028 18.0126 -2.6153 7.1250 -0.0000 -0.0000 12.8578 -12.1211 10.1361
0.00 0.00 0.00 3.3916 1.7521 3.0830 0.0000 0.0000 0.0000 -22.6825 -22.2873 -17.1472 2.3855 9.6268 27.7763 0.0725 2.7519 -6.8618 3.1505 10.9348 32.0604 0.0000 0.0000 0.0000 16.6948 1.9908 3.3152 -4.4883 -12.7833 38.5625 0.0173 -2.5405 0.1508 -0.2342 -3.1146 8.5981 -5.8528 1.2142 11.7498 0.6881 0.7373 -4.7167 3.9001 0.8329 -11.8955 -4.8713 -6.3296 -7.8066 2.8364 -8.4584 16.6861 1.0031 -4.1633 6.6986 0.0000 0.0000 0.0000 -89.6460 12.3360 27.1845 10.8558 -18.0668 -1.7309 -0.0000 0.0000 -0.0491 4.2888 20.1111 1.4771 -7.1250 0.0000 -0.0000 -23.3484 48.6615 -2.2203 0.0000 0.0000 0.0000 86.8769 -8.7965 20.4981 -11.0831 18.4155 -1.8021 0.0000 0.0000 12.5561 -7.8675 18.2863 -2.4826 7.1250 -0.0000 -0.0000 13.1995 -11.8925 10.4850
0.00 0.00 0.00 5.3839 -1.5365 2.4000 0.0000 0.0000 0.0000 -27.3972 -17.5669 -11.0471 1.6847 8.1760 23.2498 0.1307 3.0625 -8.6662 3.0994 10.8542 31.7898 0.0000 0.0000 0.0000 11.9499 5.6834 -9.0821 -9.6560 -17.2118 58.3323 -0.4938 -12.0301 14.0984 -0.9058 -6.0652 16.9736 -7.5792 1.9827 11.7852 0.1084 1.4348 -4.2229 4.0865 1.2386 -11.4920 -4.2028 -5.9293 -8.8772 2.2728 -7.8721 16.9232 0.7338 -3.8716 6.8862 0.0000 -0.0000 0.0000 -88.8158 10.3806 29.5738 11.7875 -19.4853 -2.0309 -0.0000 0.0000 -1.4378 4.7452 21.6291 1.7525 -7.1250 0.0000 -0.0000 -23.6820 50.1186 -3.1432 0.0000 -0.0000 0.0000 86.4319 -10.2388 22.1381 -11.5368 19.1063 -1.9480 0.0000 0.0000 12.1741 -6.4689 18.2014 -2.0284 7.1250 -0.0000 -0.0000 14.1040 -12.0740 11.1946
0.00 0.00 0.00 5.5660 -1.3937 1.6077 0.0000 0.0000 0.0000 -30.1116 -15.5446 -4.3823 1.3679 7.4022 20.9126 0.3080 2.4336 -11.6643 3.3888 11.2993 33.2960 0.0000 0.0000 0.0000 11.4056 6.8788 -24.1567 -13.9837 -19.1091 72.1547 0.0703 -5.0390 0.1020 -0.8452 -5.8638 16.3898 -8.0817 0.9106 13.0056 0.7155 -0.1414 -4.3193 5.4021 0.5877 -12.1281 -4.1883 -4.8589 -8.0454 1.6832 -6.3479 17.2892 0.7012 -3.1965 6.7859 -0.0000 -0.0000 0.0000 -88.5998 6.2295 28.5664 11.0735 -18.4009 -1.7991 -0.0000 0.0000 -0.2577 7.2987 20.1279 2.5237 -7.1250 0.0000 -0.0000 -20.6064 49.1116 -2.1733 -0.0000 -0.0000 0.0000 85.8445 -10.6595 23.0558 -12.0049 19.8119 -2.1039 0.0000 0.0000 11.4905 -7.2560 18.7262 -2.3407 7.1250 -0.0000 -0.0000 13.5848 -11.5071 10.9210
0.00 0.00 0.00 5.5605 -3.6544 2.9019 0.0000 0.0000 0.0000 -32.7862 -10.4306 11.4814 0.3028 3.5382 9.7810 0.7270 4.0844 -18.0985 2.3829 9.6218 27.7605 0.0000 0.0000 0.0000 7.1372 27.1676 -28.3505 -2.3747 -9.6064 27.7115 0.0938 -9.1730 -11.2172 -1.5251 -7.7976 22.1009 -8.9468 0.4186 12.5296 1.0341 -0.8838 -4.5083 6.4141 0.3160 -11.9407 -3.5414 -3.7958 -9.4510 2.5336 -5.0920 17.1287 0.9507 -2.4685 6.9444 0.0000 0.0000 0.0000 -87.5997 -0.5266 33.9824 14.8141 -23.8864 -3.1503 -0.0000 0.0000 -4.0871 7.2712 19.8240 2.4777 -7.1250 0.0000 -0.0000 -20.4951 48.8228 -2.0098 0.0000 0.0000 0.0000 86.3326 -11.8127 26.6780 -14.3738 23.2665 -2.9742 0.0000 0.0000 7.5164 -9.2025 19.7374 -3.1317 7.1250 -0.0000 -0.0000 12.3260 -10.3607 10.1523
0.00 0.00 0.00 1.5818 0.4951 1.3840 0.0000 0.0000 0.0000 -20.9366 -0.4267 0.4235 5.8837 14.3147 44.5133 0.1310 1.2128 6.5170 0.7601 5.5679 15.5356 0.0000 0.0000 0.0000 20.1228 22.6925 -15.8431 -2.4701 -9.7833 28.2778 -0.1457 -6.4400 -12.2461 -3.4103 -11.3313 33.4056 -6.4828 -0.4542 12.1201 1.8771 -1.5128 -4.7610 6.0758 -0.1271 -11.8651 -3.8628 -4.0428 -9.3866 3.6134 -5.6565 19.0707 1.2909 -2.6582 7.6247 -0.0000 -0.0000 0.0000 -89.1302 4.4144 27.1713 12.9727 -21.2471 -2.4434 -0.0000 -0.0000 0.4136 5.1689 18.6595 1.6578 -7.1250 0.0000 -0.0000 -21.8923 47.4446 -1.3840 -0.0000 -0.0000 0.0000 87.3668 -11.6118 20.6390 -9.9816 16.7107 -1.4696 0.0000 0.0000 13.3919 -7.1171 17.0789 -2.1001 7.1250 -0.0000 -0.0000 13.7168 -13.1255 10.5573
0.00 0.00 0.00 0.3093 1.8173 1.4028 0.0000 0.0000 0.0000 -16.7575 -1.7726 -15.1720 11.9080 18.3515 65.6968 0.7336 10.0952 15.8100 3.4311 11.3622 33.5114 0.0000 0.0000 0.0000 24.0063 19.0507 -10.2841 -1.8878 -8.6284 24.6397 -0.2966 -5.1932 -13.5153 -3.3442 -11.2324 33.0678 -6.0654 -0.0057 12.4402 2.1359 -0.8208 -4.4896 5.9791 0.1751 -11.8528 -4.2088 -5.0566 -9.6532 4.1946 -7.0626 18.2043 1.3950 -3.3017 7.4810 -0.0000 0.0000 0.0000 -88.7962 4.8192 26.3939 13.0187 -21.3146 -2.4601 -0.0000 -0.0000 1.4668 5.2905 18.8430 1.7131 -7.1250 0.0000 -0.0000 -21.8631 47.6312 -1.4870 -0.0000 0.0000 0.0000 86.5834 -10.4656 24.4326 -11.3679 18.8500 -1.8931 0.0000 0.0000 9.4914 -7.0161 18.1108 -2.1909 7.1250 -0.0000 -0.0000 13.7535 -12.1249 10.8837
0.00 0.00 0.00 -0.1335 2.3786 1.1308 0.0000 0.0000 0.0000 -15.6703 -4.2107 -28.0012 14.2226 19.1802 72.8832 0.0047 0.2526 1.2261 1.9108 8.6778 24.7927 0.0000 0.0000 0.0000 26.6989 16.2958 -4.3357 -1.5063 -7.7516 21.9621 -0.5819 -3.5471 -16.1368 -3.2720 -11.1228 32.6953 -5.6211 0.7238 12.7526 1.7740 0.1852 -4.2921 5.0980 0.5995 -11.9556 -4.9112 -5.7215 -9.1817 5.2971 -8.0776 17.9445 1.7782 -3.7459 7.4357 -0.0000 0.0000 0.0000 -88.3586 5.2351 25.5959 13.0790 -21.4029 -2.4821 -0.0000 0.0000 -1.0917 5.2838 21.5850 1.9486 -7.1250 0.0000 -0.0000 -23.1631 50.1608 -3.0924 -0.0000 0.0000 0.0000 86.8378 -7.0438 21.8839 -10.6639 17.7712 -1.6719 0.0000 0.0000 11.6323 -10.3875 22.1789 -3.9585 7.1250 -0.0000 -0.0000 11.5970 -7.8405 10.1216
0.00 0.00 0.00 -0.5579 2.7458 1.4935 0.0000 0.0000 0.0000 -15.4306 -12.3755 -33.0464 8.3961 16.4030 53.9772 0.1419 -1.7697 -6.7180 1.9235 8.7049 24.8766 0.0000 0.0000 0.0000 28.9116 13.1090 2.6253 -1.0963 -6.6537 18.6933 -0.9586 -2.4373 -19.5263 -2.6458 -10.0984 29.2959 -4.4522 1.2238 12.7887 1.4356 1.0250 -4.2805 3.8615 0.8929 -12.0314 -5.2232 -6.2501 -9.1994 5.2918 -8.7406 17.7872 1.7590 -4.0834 7.4391 -0.0000 -0.0000 0.0000 -88.2840 7.0964 26.2763 12.9610 -21.2301 -2.4392 -0.0000 0.0000 -1.7361 5.0172 20.3995 1.7528 -7.1250 0.0000 -0.0000 -22.8239 49.0314 -2.3823 -0.0000 -0.0000 0.0000 86.4287 -3.2967 24.6169 -11.1651 18.5408 -1.8281 0.0000 0.0000 9.6577 -11.9608 21.2951 -4.3994 7.1250 -0.0000 -0.0000 10.5894 -8.5533 9.0569
0.00 0.00 0.00 4.8680 2.5694 1.4104 0.0000 0.0000 0.0000 -28.3736 1.4973 20.1944 0.7309 5.4622 15.2317 0.0551 -4.2896 -4.8035 0.1904 2.8104 7.7512 0.0000 0.0000 0.0000 12.3534 25.3505 -24.0540 -2.6038 -10.0243 29.0554 0.1741 -9.6257 -10.1108 -3.6859 -11.7303 34.7845 -8.5963 -0.6687 11.6010 1.2633 -2.1790 -4.6955 6.7122 -0.3426 -11.3538 -4.5126 -4.9244 -11.1728 3.1056 -6.5954 19.3693 1.0905 -3.1710 8.0910 0.0000 0.0000 0.0000 -90.3431 2.1793 30.5364 13.3968 -21.8658 -2.5992 -0.0000 0.0000 -1.5452 5.8101 19.6698 1.9616 -7.1250 0.0000 -0.0000 -21.7614 48.4705 -1.9485 0.0000 0.0000 0.0000 87.3380 -14.9533 24.2020 -9.9443 16.6524 -1.4589 0.0000 0.0000 12.9876 -9.6228 22.4951 -3.7115 7.1250 -0.0000 -0.0000 12.0790 -7.6059 10.6189
0.00 0.00 0.00 -2.0361 -0.2240 3.1632 0.0000 0.0000 0.0000 -7.5818 -36.9093 -25.5397 1.7172 8.2504 23.4772 0.0360 15.9555 -22.9860 2.6000 10.0175 29.0334 0.0000 0.0000 0.0000 29.7380 5.1265 19.9688 0.0000 -0.0000 0.0000 -0.2914 -3.9786 -12.4527 -0.5506 -4.7536 13.2071 -2.9763 1.3668 10.9688 2.1553 1.6050 -4.9429 3.6968 1.0980 -11.7194 -5.3168 -6.9132 -9.6085 5.8970 -9.8200 18.7495 1.8327 -4.5295 7.9279 -0.0000 -0.0000 0.0000 -90.2853 11.1883 17.7273 11.9632 -19.7494 -2.0898 -0.0000 -0.0000 1.4680 4.2066 20.1081 1.4485 -7.1250 0.0000 -0.0000 -23.4215 48.6469 -2.2192 -0.0000 -0.0000 0.0000 82.9365 2.7091 35.6721 -19.7263 30.3112 -5.3925 0.0000 -0.0000 -0.6299 -12.6645 19.7682 -4.3461 7.1250 -0.0000 -0.0000 10.1072 -10.0044 8.3318
